<!-- keymove's mark for dark backgrounds: white ink.
     Same vector as keymove-dark.svg, so the two read as one mark in either theme. -->
<svg xmlns="http://www.w3.org/2000/svg" viewBox="45 -705 410 830" width="44" height="89" role="img" aria-label="keymove">
  <path transform="translate(0,-582) scale(1,-1)" fill="#fff" d="M236 115C334 115 414 36 414 -63C414 -151 350 -226 266 -240V-432L415 -334L445 -381L266 -497V-500L445 -616L415 -663L266 -565V-697H208V-241C119 -228 55 -152 55 -63C55 36 135 115 236 115ZM236 57C167 57 113 3 113 -63C113 -132 167 -186 236 -186C301 -186 356 -132 356 -63C356 4 302 57 236 57Z"/>
</svg>
